<svg xmlns="http://www.w3.org/2000/svg" xml:space="preserve" style="fill-rule:evenodd;clip-rule:evenodd;stroke-linejoin:round;stroke-miterlimit:2" viewBox="0 0 600 600"><path d="M0 0h600v600H0z" style="fill:none"/><path d="M757.763 367.958V510.63l-143.251-35.668v-99.87l143.251-7.134Z" style="fill:#0064a5" transform="matrix(.69808 0 0 2.80365 -248.976 -991.626)"/><path d="M757.763 375.121v100.276l-143.251 35.812V367.958l143.251 7.163Z" style="fill:#0064a5" transform="matrix(.69808 0 0 2.7923 -108.976 -987.451)"/><path d="M694.096 367.958V558.96l-79.584-47.751v-95.5l79.584-47.751Z" style="fill:#0064a5" transform="matrix(1.25654 0 0 2.09423 -312.157 -730.588)"/><path d="M694.096 367.182v191.002l-79.584-47.751v-95.5l79.584-47.751Z" style="fill:#0064a5" transform="matrix(-1.25654 0 0 2.09423 912.157 -728.963)"/><path d="M.439-.295c0 .05-.001.094-.004.131-.002.037-.008.067-.019.092-.01.024-.027.042-.051.054C.342-.006.309 0 .267 0 .23 0 .196-.004.167-.013v.195H.09V-.52h.045l.013.049c.014-.02.03-.034.048-.042.018-.009.036-.014.055-.015C.27-.53.287-.531.302-.531c.04 0 .07.008.089.025.019.016.032.041.038.076.007.035.01.08.01.135ZM.172-.379v.304c.015.003.031.005.046.008.015.002.031.003.047.003.027 0 .046-.003.059-.008.013-.006.021-.016.025-.029.004-.014.006-.033.006-.057v-.219c0-.019-.002-.035-.005-.048C.347-.438.34-.448.327-.455.315-.462.295-.466.267-.466c-.039 0-.065.008-.077.025-.012.016-.018.037-.018.062Z" style="fill:#0064a5;fill-rule:nonzero" transform="matrix(132.7888 0 0 132.7888 28.0506 540.002864)"/><path d="M.347.039v-.088c-.021.019-.043.03-.068.034C.254-.012.232-.01.212-.01.173-.01.143-.019.123-.038.104-.057.091-.084.084-.121.078-.158.075-.204.075-.259c0-.043.001-.081.003-.114.003-.034.009-.063.019-.086C.108-.482.125-.5.148-.512c.024-.013.057-.019.099-.019.019 0 .044.002.077.006s.068.012.105.023v.538c0 .031-.004.059-.011.083C.411.143.397.161.374.174.351.187.316.194.268.194.235.194.204.19.176.182.148.175.124.166.103.156l.016-.05c.019.006.04.011.065.015.025.005.05.007.074.007.027 0 .048-.006.064-.017C.339.1.347.076.347.039Zm-.005-.2v-.294C.327-.458.312-.461.296-.463.281-.465.265-.466.249-.466c-.026 0-.046.003-.059.009-.013.005-.021.015-.025.029-.004.013-.006.032-.006.056v.209c0 .019.001.035.004.048.003.013.011.024.023.031.013.007.033.01.061.01.039 0 .065-.008.077-.025.012-.017.018-.037.018-.062Z" style="fill:#0064a5;fill-rule:nonzero" transform="matrix(132.7888 0 0 132.7888 96.30415264 540.002864)"/><path d="M.672 0H.59v-.377c0-.019-.001-.035-.004-.048-.003-.013-.01-.023-.021-.03C.554-.462.535-.466.509-.466c-.036 0-.06.008-.071.025-.011.016-.016.037-.016.062V0H.34v-.377c0-.019-.001-.035-.004-.048-.003-.013-.01-.023-.021-.03C.304-.462.285-.466.259-.466c-.036 0-.06.008-.071.025-.011.016-.016.037-.016.062V0H.09v-.52h.045l.013.049c.013-.02.028-.034.045-.042.017-.009.034-.014.051-.015.017-.002.033-.003.047-.003.03 0 .054.005.071.015.018.01.031.023.04.04.013-.018.028-.031.044-.038.016-.008.032-.013.049-.014.017-.002.032-.003.046-.003.039 0 .067.008.085.024.019.015.031.036.037.061.006.025.009.051.009.08V0Z" style="fill:#848484;fill-rule:nonzero" transform="matrix(132.7888 0 0 132.7888 165.22063776 540.002864)"/><path d="M.08-.52h.082v.378c0 .019.001.035.004.048.003.013.011.024.023.031.013.007.033.01.061.01.039 0 .065-.008.077-.025.012-.017.018-.037.018-.062v-.38h.082V0H.382L.369-.049c-.014.019-.03.033-.048.042C.303.002.285.007.266.009.247.011.23.012.215.012.176.012.146.004.127-.011.108-.027.095-.048.089-.073.083-.098.08-.125.08-.153V-.52Z" style="fill:#848484;fill-rule:nonzero" transform="matrix(132.7888 0 0 132.7888 265.07840416 540.002864)"/><path d="M.672 0H.59v-.377c0-.019-.001-.035-.004-.048-.003-.013-.01-.023-.021-.03C.554-.462.535-.466.509-.466c-.036 0-.06.008-.071.025-.011.016-.016.037-.016.062V0H.34v-.377c0-.019-.001-.035-.004-.048-.003-.013-.01-.023-.021-.03C.304-.462.285-.466.259-.466c-.036 0-.06.008-.071.025-.011.016-.016.037-.016.062V0H.09v-.52h.045l.013.049c.013-.02.028-.034.045-.042.017-.009.034-.014.051-.015.017-.002.033-.003.047-.003.03 0 .054.005.071.015.018.01.031.023.04.04.013-.018.028-.031.044-.038.016-.008.032-.013.049-.014.017-.002.032-.003.046-.003.039 0 .067.008.085.024.019.015.031.036.037.061.006.025.009.051.009.08V0Z" style="fill:#848484;fill-rule:nonzero" transform="matrix(132.7888 0 0 132.7888 333.730856 540.002864)"/><path d="M.09-.72h.077v.234C.188-.505.21-.517.235-.52.26-.523.282-.525.302-.525c.04 0 .07.009.089.026.019.017.032.044.038.079.007.035.01.081.01.136 0 .05-.001.094-.004.131-.002.037-.008.067-.019.092-.01.025-.027.043-.051.055C.342.006.309.012.267.012.248.012.223.01.192.005.161.001.127-.006.09-.017V-.72Zm.082.346v.31c.015.003.031.005.046.008.015.002.031.003.047.003.027 0 .046-.003.059-.008.013-.006.021-.016.025-.029.004-.014.006-.033.006-.057v-.225C.355-.391.353-.407.35-.42.347-.433.34-.443.327-.45.315-.457.295-.461.267-.461c-.039 0-.065.008-.077.025-.012.016-.018.037-.018.062Z" style="fill:#848484;fill-rule:nonzero" transform="matrix(132.7888 0 0 132.7888 433.58672288 540.002864)"/><path d="M.256.012C.211.012.176.006.151-.007.126-.02.109-.038.098-.061.087-.085.081-.114.078-.147.076-.18.075-.218.075-.26c0-.042.001-.08.003-.113.003-.033.009-.062.02-.085.011-.023.028-.041.053-.054.025-.013.06-.019.105-.019s.08.006.105.019c.025.013.043.031.054.054.011.023.017.052.019.085.003.033.004.071.004.113 0 .042-.001.08-.004.113-.002.033-.008.062-.019.086-.011.023-.029.041-.054.054C.336.006.301.012.256.012Zm.097-.157v-.229c0-.017-.001-.033-.004-.047C.346-.435.338-.446.325-.454.312-.462.289-.466.256-.466c-.033 0-.056.004-.07.012-.013.008-.021.019-.024.033-.003.014-.004.03-.004.047v.229c0 .017.001.033.004.047.003.014.011.025.024.033.014.008.037.012.07.012.033 0 .056-.004.069-.012.013-.008.021-.019.024-.033.003-.014.004-.03.004-.047Z" style="fill:#848484;fill-rule:nonzero" transform="matrix(132.7888 0 0 132.7888 501.84027552 540.002864)"/></svg>
